<?xml version="1.0" encoding="UTF-8" standalone="no"?>
<!-- Created with Inkscape (http://www.inkscape.org/) -->

<svg
   xmlns:dc="http://purl.org/dc/elements/1.1/"
   xmlns:cc="http://creativecommons.org/ns#"
   xmlns:rdf="http://www.w3.org/1999/02/22-rdf-syntax-ns#"
   xmlns:svg="http://www.w3.org/2000/svg"
   xmlns="http://www.w3.org/2000/svg"
   xmlns:sodipodi="http://sodipodi.sourceforge.net/DTD/sodipodi-0.dtd"
   xmlns:inkscape="http://www.inkscape.org/namespaces/inkscape"
   width="308.09"
   height="332"
   id="svg4964"
   version="1.1"
   inkscape:version="0.48.4 r9939"
   sodipodi:docname="logo.svg">
  <defs
     id="defs4966" />
  <sodipodi:namedview
     id="base"
     pagecolor="#ffffff"
     bordercolor="#666666"
     borderopacity="1.0"
     inkscape:pageopacity="0.0"
     inkscape:pageshadow="2"
     inkscape:zoom="1.7072933"
     inkscape:cx="154.045"
     inkscape:cy="166"
     inkscape:document-units="px"
     inkscape:current-layer="layer2"
     showgrid="false"
     inkscape:window-width="1034"
     inkscape:window-height="815"
     inkscape:window-x="868"
     inkscape:window-y="212"
     inkscape:window-maximized="0" />
  <metadata
     id="metadata4969">
    <rdf:RDF>
      <cc:Work
         rdf:about="">
        <dc:format>image/svg+xml</dc:format>
        <dc:type
           rdf:resource="http://purl.org/dc/dcmitype/StillImage" />
        <dc:title></dc:title>
      </cc:Work>
    </rdf:RDF>
  </metadata>
  <g
     inkscape:label="Layer 1"
     inkscape:groupmode="layer"
     id="layer1"
     style="display:none"
     transform="translate(0,-720.36218)">
    <g
       id="g5074"
       transform="translate(-142.98715,-129.41572)">
      <g
         onclick="alert('hi')"
         transform="matrix(1,0,-0.87901598,-1,-24.817554,374.81231)"
         style="font-size:100px;font-style:normal;font-variant:normal;font-weight:300;font-stretch:normal;line-height:125%;letter-spacing:0px;word-spacing:0px;opacity:0.84482757;fill:#d45500;fill-opacity:1;stroke:none;font-family:RaananSuper;-inkscape-font-specification:RaananSuper Light"
         id="text2993-7-1-7-7">
        <path
           sodipodi:nodetypes="csssscsccccssscccc"
           d="m 355.75651,176.7464 c -2e-5,-4.81931 -0.504,-8.25884 -1.49414,-10.32714 -0.9874,-2.06257 -2.60012,-3.09815 -4.85596,-3.09815 -2.24122,0 -3.86583,1.02989 -4.85596,3.09815 -0.98742,2.0626 -1.47217,5.50783 -1.47217,10.32714 0,4.8047 0.49072,8.23976 1.47217,10.30518 0.99609,2.06543 2.61474,3.09815 4.85596,3.09814 2.25584,1e-5 3.87449,-1.02538 4.85596,-3.07617 0.99607,-2.06542 1.49412,-5.5078 1.49414,-10.32715 m 4.63623,0 c -3e-5,5.71291 -0.90823,9.9756 -2.72461,12.78809 -1.80178,2.8125 -4.55568,4.21875 -8.26172,4.21875 -3.70607,0 -6.45997,-1.39892 -8.26172,-4.19678 -1.80176,-2.79784 -2.70264,-7.06786 -2.70264,-12.81006 0,-5.72751 0.90088,-9.99753 2.70264,-12.81005 1.8164,-2.81247 4.5703,-4.21872 8.26172,-4.21875 3.70604,3e-5 6.45994,1.40628 8.26172,4.21875 1.81638,2.81252 2.72458,7.08254 2.72461,12.81005"
           style="font-size:45px;font-weight:normal;text-align:start;line-height:125%;writing-mode:lr-tb;text-anchor:start;fill:#d45500;font-family:DejaVu Sans Mono;-inkscape-font-specification:DejaVu Sans Mono"
           id="path3773-3-9-5-3"
           inkscape:connector-curvature="0" />
        <path
           d="m 352.70624,143.04261 33.36914,0 0,5.77179 -13.68164,0 0,44.91811 -5.94727,0 0,-44.91811 -13.74023,0 0,-5.77179"
           style="font-size:60px;fill:#d45500;font-family:DejaVu Sans Mono;-inkscape-font-specification:DejaVu Sans Mono"
           id="path3775-9-3-8-9"
           inkscape:connector-curvature="0" />
        <path
           d="m 384.19012,164.5748 0,12.32666 5.14161,0 c 2.05076,2e-5 3.64744,-0.54198 4.79004,-1.62598 1.1572,-1.08396 1.73581,-2.60007 1.73583,-4.54834 -2e-5,-1.94821 -0.5713,-3.457 -1.71386,-4.52636 -1.1426,-1.08396 -2.7466,-1.62595 -4.81201,-1.62598 l -5.14161,0 m -4.43847,-3.64746 9.58008,0 c 3.66209,3e-5 6.43796,0.83499 8.32763,2.50488 1.88963,1.6553 2.83445,4.08694 2.83448,7.29492 -3e-5,3.23733 -0.94485,5.68361 -2.83448,7.33887 -1.87502,1.65529 -4.65089,2.48292 -8.32763,2.48291 l -5.14161,0 0,13.18359 -4.43847,0 0,-32.80517"
           style="font-size:45px;font-weight:normal;text-align:start;line-height:125%;writing-mode:lr-tb;text-anchor:start;fill:#d45500;font-family:DejaVu Sans Mono;-inkscape-font-specification:DejaVu Sans Mono"
           id="path3777-2-3-3-1"
           inkscape:connector-curvature="0" />
      </g>
      <g
         onclick="alert('hi')"
         transform="matrix(1,0,-1.1698138,0.25629511,31.861156,131.01147)"
         style="font-size:100px;font-style:normal;font-variant:normal;font-weight:300;font-stretch:normal;line-height:125%;letter-spacing:0px;word-spacing:0px;fill:#6c5353;fill-opacity:1;stroke:none;font-family:RaananSuper;-inkscape-font-specification:RaananSuper Light"
         id="text2993-3-6-0-9">
        <path
           sodipodi:nodetypes="csssscsccccssscccc"
           d="m 356.14423,177.36288 c -2e-5,-4.81931 -0.504,-8.25884 -1.49414,-10.32714 -0.9874,-2.06257 -2.60012,-3.09815 -4.85596,-3.09815 -2.24122,0 -3.86583,1.02989 -4.85596,3.09815 -0.98742,2.0626 -1.47217,5.50783 -1.47217,10.32714 0,4.8047 0.49072,8.23976 1.47217,10.30518 0.99609,2.06543 2.61474,3.09815 4.85596,3.09814 2.25584,1e-5 3.87449,-1.02538 4.85596,-3.07617 0.99607,-2.06542 1.49412,-5.5078 1.49414,-10.32715 m 4.63623,0 c -3e-5,5.71291 -0.90823,9.9756 -2.72461,12.78809 -1.80178,2.8125 -4.55568,4.21875 -8.26172,4.21875 -3.70607,0 -6.45997,-1.39892 -8.26172,-4.19678 -1.80176,-2.79784 -2.70264,-7.06786 -2.70264,-12.81006 0,-5.72751 0.90088,-9.99753 2.70264,-12.81005 1.8164,-2.81247 4.5703,-4.21872 8.26172,-4.21875 3.70604,3e-5 6.45994,1.40628 8.26172,4.21875 1.81638,2.81252 2.72458,7.08254 2.72461,12.81005"
           style="font-size:45px;font-weight:normal;text-align:start;line-height:125%;writing-mode:lr-tb;text-anchor:start;fill:#6c5353;fill-opacity:1;font-family:DejaVu Sans Mono;-inkscape-font-specification:DejaVu Sans Mono"
           id="path3773-2-4-9-8"
           inkscape:connector-curvature="0" />
        <path
           d="m 352.70624,143.04261 33.36914,0 0,5.77179 -13.68164,0 0,44.91811 -5.94727,0 0,-44.91811 -13.74023,0 0,-5.77179"
           style="font-size:60px;fill:#6c5353;fill-opacity:1;font-family:DejaVu Sans Mono;-inkscape-font-specification:DejaVu Sans Mono"
           id="path3775-0-3-4-7"
           inkscape:connector-curvature="0" />
        <path
           d="m 384.19012,164.5748 0,12.32666 5.14161,0 c 2.05076,2e-5 3.64744,-0.54198 4.79004,-1.62598 1.1572,-1.08396 1.73581,-2.60007 1.73583,-4.54834 -2e-5,-1.94821 -0.5713,-3.457 -1.71386,-4.52636 -1.1426,-1.08396 -2.7466,-1.62595 -4.81201,-1.62598 l -5.14161,0 m -4.43847,-3.64746 9.58008,0 c 3.66209,3e-5 6.43796,0.83499 8.32763,2.50488 1.88963,1.6553 2.83445,4.08694 2.83448,7.29492 -3e-5,3.23733 -0.94485,5.68361 -2.83448,7.33887 -1.87502,1.65529 -4.65089,2.48292 -8.32763,2.48291 l -5.14161,0 0,13.18359 -4.43847,0 0,-32.80517"
           style="font-size:45px;font-weight:normal;text-align:start;line-height:125%;writing-mode:lr-tb;text-anchor:start;fill:#6c5353;fill-opacity:1;font-family:DejaVu Sans Mono;-inkscape-font-specification:DejaVu Sans Mono"
           id="path3777-1-9-6-5"
           inkscape:connector-curvature="0" />
      </g>
      <g
         onclick="alert('hi')"
         transform="translate(-195.14736,-12.945089)"
         style="font-size:100px;font-style:normal;font-variant:normal;font-weight:300;font-stretch:normal;line-height:125%;letter-spacing:0px;word-spacing:0px;fill:#000000;fill-opacity:1;stroke:none;font-family:RaananSuper;-inkscape-font-specification:RaananSuper Light"
         id="text2993-35-52-2">
        <path
           sodipodi:nodetypes="csssscsccccssscccc"
           d="m 356.14423,176.90052 c -2e-5,-4.81931 -0.504,-8.25884 -1.49414,-10.32714 -0.9874,-2.06257 -2.60012,-3.09815 -4.85596,-3.09815 -2.24122,0 -3.86583,1.02989 -4.85596,3.09815 -0.98742,2.0626 -1.47217,5.50783 -1.47217,10.32714 0,4.8047 0.49072,8.23976 1.47217,10.30518 0.99609,2.06543 2.61474,3.09815 4.85596,3.09814 2.25584,1e-5 3.87449,-1.02538 4.85596,-3.07617 0.99607,-2.06542 1.49412,-5.5078 1.49414,-10.32715 m 4.63623,0 c -3e-5,5.71291 -0.90823,9.9756 -2.72461,12.78809 -1.80178,2.8125 -4.55568,4.21875 -8.26172,4.21875 -3.70607,0 -6.45997,-1.39892 -8.26172,-4.19678 -1.80176,-2.79784 -2.70264,-7.06786 -2.70264,-12.81006 0,-5.72751 0.90088,-9.99753 2.70264,-12.81005 1.8164,-2.81247 4.5703,-4.21872 8.26172,-4.21875 3.70604,3e-5 6.45994,1.40628 8.26172,4.21875 1.81638,2.81252 2.72458,7.08254 2.72461,12.81005"
           style="font-size:45px;font-weight:normal;text-align:start;line-height:125%;writing-mode:lr-tb;text-anchor:start;font-family:DejaVu Sans Mono;-inkscape-font-specification:DejaVu Sans Mono"
           id="path3773-33-2-7"
           inkscape:connector-curvature="0" />
        <path
           d="m 352.70624,143.04261 33.36914,0 0,5.77179 -13.68164,0 0,44.91811 -5.94727,0 0,-44.91811 -13.74023,0 0,-5.77179"
           style="font-size:60px;font-family:DejaVu Sans Mono;-inkscape-font-specification:DejaVu Sans Mono"
           id="path3775-3-8-5"
           inkscape:connector-curvature="0" />
        <path
           d="m 384.19012,164.5748 0,12.32666 5.14161,0 c 2.05076,2e-5 3.64744,-0.54198 4.79004,-1.62598 1.1572,-1.08396 1.73581,-2.60007 1.73583,-4.54834 -2e-5,-1.94821 -0.5713,-3.457 -1.71386,-4.52636 -1.1426,-1.08396 -2.7466,-1.62595 -4.81201,-1.62598 l -5.14161,0 m -4.43847,-3.64746 9.58008,0 c 3.66209,3e-5 6.43796,0.83499 8.32763,2.50488 1.88963,1.6553 2.83445,4.08694 2.83448,7.29492 -3e-5,3.23733 -0.94485,5.68361 -2.83448,7.33887 -1.87502,1.65529 -4.65089,2.48292 -8.32763,2.48291 l -5.14161,0 0,13.18359 -4.43847,0 0,-32.80517"
           style="font-size:45px;font-weight:normal;text-align:start;line-height:125%;writing-mode:lr-tb;text-anchor:start;font-family:DejaVu Sans Mono;-inkscape-font-specification:DejaVu Sans Mono"
           id="path3777-9-3-1"
           inkscape:connector-curvature="0" />
      </g>
    </g>
  </g>
  <g
     inkscape:groupmode="layer"
     id="layer2"
     inkscape:label="Layer"
     style="display:inline"
     transform="translate(0,-720.36218)">
    <g
       id="g5850"
       transform="matrix(1.0610022,0,0,1.0260247,-1.5377221,718.61584)">
      <g
         onclick="alert('hi')"
         transform="matrix(3.0547546,0,-2.6851781,-2.2250294,-513.20056,643.51238)"
         style="font-size:100px;font-style:normal;font-variant:normal;font-weight:300;font-stretch:normal;line-height:125%;letter-spacing:0px;word-spacing:0px;opacity:0.91600001;fill:#aa4400;fill-opacity:1;stroke:none;font-family:RaananSuper;-inkscape-font-specification:RaananSuper Light"
         id="text2993-7-1-7-7-5">
        <path
           sodipodi:nodetypes="csssscsccccssscccc"
           d="m 355.75651,176.7464 c -2e-5,-4.81931 -0.504,-8.25884 -1.49414,-10.32714 -0.9874,-2.06257 -2.60012,-3.09815 -4.85596,-3.09815 -2.24122,0 -3.86583,1.02989 -4.85596,3.09815 -0.98742,2.0626 -1.47217,5.50783 -1.47217,10.32714 0,4.8047 0.49072,8.23976 1.47217,10.30518 0.99609,2.06543 2.61474,3.09815 4.85596,3.09814 2.25584,1e-5 3.87449,-1.02538 4.85596,-3.07617 0.99607,-2.06542 1.49412,-5.5078 1.49414,-10.32715 m 4.63623,0 c -3e-5,5.71291 -0.90823,9.9756 -2.72461,12.78809 -1.80178,2.8125 -4.55568,4.21875 -8.26172,4.21875 -3.70607,0 -6.45997,-1.39892 -8.26172,-4.19678 -1.80176,-2.79784 -2.70264,-7.06786 -2.70264,-12.81006 0,-5.72751 0.90088,-9.99753 2.70264,-12.81005 1.8164,-2.81247 4.5703,-4.21872 8.26172,-4.21875 3.70604,3e-5 6.45994,1.40628 8.26172,4.21875 1.81638,2.81252 2.72458,7.08254 2.72461,12.81005"
           style="font-size:45px;font-weight:normal;text-align:start;line-height:125%;writing-mode:lr-tb;text-anchor:start;fill:#aa4400;fill-opacity:1;font-family:DejaVu Sans Mono;-inkscape-font-specification:DejaVu Sans Mono"
           id="path3773-3-9-5-3-1"
           inkscape:connector-curvature="0" />
        <path
           d="m 352.70624,143.04261 33.36914,0 0,5.77179 -13.68164,0 0,44.91811 -5.94727,0 0,-44.91811 -13.74023,0 0,-5.77179"
           style="font-size:60px;fill:#aa4400;fill-opacity:1;font-family:DejaVu Sans Mono;-inkscape-font-specification:DejaVu Sans Mono"
           id="path3775-9-3-8-9-7"
           inkscape:connector-curvature="0" />
        <path
           d="m 384.19012,164.5748 0,12.32666 5.14161,0 c 2.05076,2e-5 3.64744,-0.54198 4.79004,-1.62598 1.1572,-1.08396 1.73581,-2.60007 1.73583,-4.54834 -2e-5,-1.94821 -0.5713,-3.457 -1.71386,-4.52636 -1.1426,-1.08396 -2.7466,-1.62595 -4.81201,-1.62598 l -5.14161,0 m -4.43847,-3.64746 9.58008,0 c 3.66209,3e-5 6.43796,0.83499 8.32763,2.50488 1.88963,1.6553 2.83445,4.08694 2.83448,7.29492 -3e-5,3.23733 -0.94485,5.68361 -2.83448,7.33887 -1.87502,1.65529 -4.65089,2.48292 -8.32763,2.48291 l -5.14161,0 0,13.18359 -4.43847,0 0,-32.80517"
           style="font-size:45px;font-weight:normal;text-align:start;line-height:125%;writing-mode:lr-tb;text-anchor:start;fill:#aa4400;fill-opacity:1;font-family:DejaVu Sans Mono;-inkscape-font-specification:DejaVu Sans Mono"
           id="path3777-2-3-3-1-9"
           inkscape:connector-curvature="0" />
      </g>
      <g
         onclick="alert('hi')"
         transform="matrix(3.0547546,0,-2.8471072,0.80646392,-480.58281,54.653323)"
         style="font-size:100px;font-style:normal;font-variant:normal;font-weight:300;font-stretch:normal;line-height:125%;letter-spacing:0px;word-spacing:0px;opacity:0.54799996;fill:#483737;fill-opacity:1;stroke:none;font-family:RaananSuper;-inkscape-font-specification:RaananSuper Light"
         id="text2993-3-6-0-9-6">
        <path
           sodipodi:nodetypes="csssscsccccssscccc"
           d="m 356.14423,177.36288 c -2e-5,-4.81931 -0.504,-8.25884 -1.49414,-10.32714 -0.9874,-2.06257 -2.60012,-3.09815 -4.85596,-3.09815 -2.24122,0 -3.86583,1.02989 -4.85596,3.09815 -0.98742,2.0626 -1.47217,5.50783 -1.47217,10.32714 0,4.8047 0.49072,8.23976 1.47217,10.30518 0.99609,2.06543 2.61474,3.09815 4.85596,3.09814 2.25584,1e-5 3.87449,-1.02538 4.85596,-3.07617 0.99607,-2.06542 1.49412,-5.5078 1.49414,-10.32715 m 4.63623,0 c -3e-5,5.71291 -0.90823,9.9756 -2.72461,12.78809 -1.80178,2.8125 -4.55568,4.21875 -8.26172,4.21875 -3.70607,0 -6.45997,-1.39892 -8.26172,-4.19678 -1.80176,-2.79784 -2.70264,-7.06786 -2.70264,-12.81006 0,-5.72751 0.90088,-9.99753 2.70264,-12.81005 1.8164,-2.81247 4.5703,-4.21872 8.26172,-4.21875 3.70604,3e-5 6.45994,1.40628 8.26172,4.21875 1.81638,2.81252 2.72458,7.08254 2.72461,12.81005"
           style="font-size:45px;font-weight:normal;text-align:start;line-height:125%;writing-mode:lr-tb;text-anchor:start;fill:#483737;fill-opacity:1;font-family:DejaVu Sans Mono;-inkscape-font-specification:DejaVu Sans Mono"
           id="path3773-2-4-9-8-0"
           inkscape:connector-curvature="0" />
        <path
           d="m 352.70624,143.04261 33.36914,0 0,5.77179 -13.68164,0 0,44.91811 -5.94727,0 0,-44.91811 -13.74023,0 0,-5.77179"
           style="font-size:60px;fill:#483737;fill-opacity:1;font-family:DejaVu Sans Mono;-inkscape-font-specification:DejaVu Sans Mono"
           id="path3775-0-3-4-7-2"
           inkscape:connector-curvature="0" />
        <path
           d="m 384.19012,164.5748 0,12.32666 5.14161,0 c 2.05076,2e-5 3.64744,-0.54198 4.79004,-1.62598 1.1572,-1.08396 1.73581,-2.60007 1.73583,-4.54834 -2e-5,-1.94821 -0.5713,-3.457 -1.71386,-4.52636 -1.1426,-1.08396 -2.7466,-1.62595 -4.81201,-1.62598 l -5.14161,0 m -4.43847,-3.64746 9.58008,0 c 3.66209,3e-5 6.43796,0.83499 8.32763,2.50488 1.88963,1.6553 2.83445,4.08694 2.83448,7.29492 -3e-5,3.23733 -0.94485,5.68361 -2.83448,7.33887 -1.87502,1.65529 -4.65089,2.48292 -8.32763,2.48291 l -5.14161,0 0,13.18359 -4.43847,0 0,-32.80517"
           style="font-size:45px;font-weight:normal;text-align:start;line-height:125%;writing-mode:lr-tb;text-anchor:start;fill:#483737;fill-opacity:1;font-family:DejaVu Sans Mono;-inkscape-font-specification:DejaVu Sans Mono"
           id="path3777-1-9-6-5-6"
           inkscape:connector-curvature="0" />
      </g>
      <g
         onclick="alert('hi')"
         transform="matrix(3.0547546,0,0,4.1413378,-1033.5163,-590.84553)"
         style="font-size:100px;font-style:normal;font-variant:normal;font-weight:300;font-stretch:normal;line-height:125%;letter-spacing:0px;word-spacing:0px;fill:#483737;fill-opacity:1;stroke:none;font-family:RaananSuper;-inkscape-font-specification:RaananSuper Light"
         id="text2993-35-52-2-0">
        <path
           sodipodi:nodetypes="csssscsccccssscccc"
           d="m 356.14423,176.90052 c -2e-5,-4.81931 -0.504,-8.25884 -1.49414,-10.32714 -0.9874,-2.06257 -2.60012,-3.09815 -4.85596,-3.09815 -2.24122,0 -3.86583,1.02989 -4.85596,3.09815 -0.98742,2.0626 -1.47217,5.50783 -1.47217,10.32714 0,4.8047 0.49072,8.23976 1.47217,10.30518 0.99609,2.06543 2.61474,3.09815 4.85596,3.09814 2.25584,1e-5 3.87449,-1.02538 4.85596,-3.07617 0.99607,-2.06542 1.49412,-5.5078 1.49414,-10.32715 m 4.63623,0 c -3e-5,5.71291 -0.90823,9.9756 -2.72461,12.78809 -1.80178,2.8125 -4.55568,4.21875 -8.26172,4.21875 -3.70607,0 -6.45997,-1.39892 -8.26172,-4.19678 -1.80176,-2.79784 -2.70264,-7.06786 -2.70264,-12.81006 0,-5.72751 0.90088,-9.99753 2.70264,-12.81005 1.8164,-2.81247 4.5703,-4.21872 8.26172,-4.21875 3.70604,3e-5 6.45994,1.40628 8.26172,4.21875 1.81638,2.81252 2.72458,7.08254 2.72461,12.81005"
           style="font-size:45px;font-weight:normal;text-align:start;line-height:125%;writing-mode:lr-tb;text-anchor:start;fill:#483737;font-family:DejaVu Sans Mono;-inkscape-font-specification:DejaVu Sans Mono"
           id="path3773-33-2-7-9"
           inkscape:connector-curvature="0" />
        <path
           d="m 352.70624,143.04261 33.36914,0 0,5.77179 -13.68164,0 0,44.91811 -5.94727,0 0,-44.91811 -13.74023,0 0,-5.77179"
           style="font-size:60px;fill:#483737;font-family:DejaVu Sans Mono;-inkscape-font-specification:DejaVu Sans Mono"
           id="path3775-3-8-5-5"
           inkscape:connector-curvature="0" />
        <path
           d="m 384.19012,164.5748 0,12.32666 5.14161,0 c 2.05076,2e-5 3.64744,-0.54198 4.79004,-1.62598 1.1572,-1.08396 1.73581,-2.60007 1.73583,-4.54834 -2e-5,-1.94821 -0.5713,-3.457 -1.71386,-4.52636 -1.1426,-1.08396 -2.7466,-1.62595 -4.81201,-1.62598 l -5.14161,0 m -4.43847,-3.64746 9.58008,0 c 3.66209,3e-5 6.43796,0.83499 8.32763,2.50488 1.88963,1.6553 2.83445,4.08694 2.83448,7.29492 -3e-5,3.23733 -0.94485,5.68361 -2.83448,7.33887 -1.87502,1.65529 -4.65089,2.48292 -8.32763,2.48291 l -5.14161,0 0,13.18359 -4.43847,0 0,-32.80517"
           style="font-size:45px;font-weight:normal;text-align:start;line-height:125%;writing-mode:lr-tb;text-anchor:start;fill:#483737;font-family:DejaVu Sans Mono;-inkscape-font-specification:DejaVu Sans Mono"
           id="path3777-9-3-1-8"
           inkscape:connector-curvature="0" />
      </g>
      <g
         id="use5782"
         style="font-size:100px;font-style:normal;font-variant:normal;font-weight:300;font-stretch:normal;line-height:125%;letter-spacing:0px;word-spacing:0px;opacity:0.48399999;fill:#483737;fill-opacity:1;stroke:none;font-family:RaananSuper;-inkscape-font-specification:RaananSuper Light"
         transform="matrix(3.0547546,0,-2.8471072,0.80646392,-480.58281,54.653323)"
         onclick="alert('hi')">
        <path
           inkscape:connector-curvature="0"
           id="path5796"
           style="font-size:45px;font-weight:normal;text-align:start;line-height:125%;writing-mode:lr-tb;text-anchor:start;fill:#483737;fill-opacity:1;font-family:DejaVu Sans Mono;-inkscape-font-specification:DejaVu Sans Mono"
           d="m 356.14423,177.36288 c -2e-5,-4.81931 -0.504,-8.25884 -1.49414,-10.32714 -0.9874,-2.06257 -2.60012,-3.09815 -4.85596,-3.09815 -2.24122,0 -3.86583,1.02989 -4.85596,3.09815 -0.98742,2.0626 -1.47217,5.50783 -1.47217,10.32714 0,4.8047 0.49072,8.23976 1.47217,10.30518 0.99609,2.06543 2.61474,3.09815 4.85596,3.09814 2.25584,1e-5 3.87449,-1.02538 4.85596,-3.07617 0.99607,-2.06542 1.49412,-5.5078 1.49414,-10.32715 m 4.63623,0 c -3e-5,5.71291 -0.90823,9.9756 -2.72461,12.78809 -1.80178,2.8125 -4.55568,4.21875 -8.26172,4.21875 -3.70607,0 -6.45997,-1.39892 -8.26172,-4.19678 -1.80176,-2.79784 -2.70264,-7.06786 -2.70264,-12.81006 0,-5.72751 0.90088,-9.99753 2.70264,-12.81005 1.8164,-2.81247 4.5703,-4.21872 8.26172,-4.21875 3.70604,3e-5 6.45994,1.40628 8.26172,4.21875 1.81638,2.81252 2.72458,7.08254 2.72461,12.81005"
           sodipodi:nodetypes="csssscsccccssscccc" />
        <path
           inkscape:connector-curvature="0"
           id="path5798"
           style="font-size:60px;fill:#483737;fill-opacity:1;font-family:DejaVu Sans Mono;-inkscape-font-specification:DejaVu Sans Mono"
           d="m 352.70624,143.04261 33.36914,0 0,5.77179 -13.68164,0 0,44.91811 -5.94727,0 0,-44.91811 -13.74023,0 0,-5.77179" />
        <path
           inkscape:connector-curvature="0"
           id="path5800"
           style="font-size:45px;font-weight:normal;text-align:start;line-height:125%;writing-mode:lr-tb;text-anchor:start;fill:#483737;fill-opacity:1;font-family:DejaVu Sans Mono;-inkscape-font-specification:DejaVu Sans Mono"
           d="m 384.19012,164.5748 0,12.32666 5.14161,0 c 2.05076,2e-5 3.64744,-0.54198 4.79004,-1.62598 1.1572,-1.08396 1.73581,-2.60007 1.73583,-4.54834 -2e-5,-1.94821 -0.5713,-3.457 -1.71386,-4.52636 -1.1426,-1.08396 -2.7466,-1.62595 -4.81201,-1.62598 l -5.14161,0 m -4.43847,-3.64746 9.58008,0 c 3.66209,3e-5 6.43796,0.83499 8.32763,2.50488 1.88963,1.6553 2.83445,4.08694 2.83448,7.29492 -3e-5,3.23733 -0.94485,5.68361 -2.83448,7.33887 -1.87502,1.65529 -4.65089,2.48292 -8.32763,2.48291 l -5.14161,0 0,13.18359 -4.43847,0 0,-32.80517" />
      </g>
      <g
         id="use5784"
         style="font-size:100px;font-style:normal;font-variant:normal;font-weight:300;font-stretch:normal;line-height:125%;letter-spacing:0px;word-spacing:0px;fill:#483737;fill-opacity:1;stroke:none;font-family:RaananSuper;-inkscape-font-specification:RaananSuper Light"
         transform="matrix(3.0547546,0,0,4.1413378,-1033.5163,-590.84553)"
         onclick="alert('hi')">
        <path
           inkscape:connector-curvature="0"
           id="path5804"
           style="font-size:45px;font-weight:normal;text-align:start;line-height:125%;writing-mode:lr-tb;text-anchor:start;fill:#483737;font-family:DejaVu Sans Mono;-inkscape-font-specification:DejaVu Sans Mono"
           d="m 356.14423,176.90052 c -2e-5,-4.81931 -0.504,-8.25884 -1.49414,-10.32714 -0.9874,-2.06257 -2.60012,-3.09815 -4.85596,-3.09815 -2.24122,0 -3.86583,1.02989 -4.85596,3.09815 -0.98742,2.0626 -1.47217,5.50783 -1.47217,10.32714 0,4.8047 0.49072,8.23976 1.47217,10.30518 0.99609,2.06543 2.61474,3.09815 4.85596,3.09814 2.25584,1e-5 3.87449,-1.02538 4.85596,-3.07617 0.99607,-2.06542 1.49412,-5.5078 1.49414,-10.32715 m 4.63623,0 c -3e-5,5.71291 -0.90823,9.9756 -2.72461,12.78809 -1.80178,2.8125 -4.55568,4.21875 -8.26172,4.21875 -3.70607,0 -6.45997,-1.39892 -8.26172,-4.19678 -1.80176,-2.79784 -2.70264,-7.06786 -2.70264,-12.81006 0,-5.72751 0.90088,-9.99753 2.70264,-12.81005 1.8164,-2.81247 4.5703,-4.21872 8.26172,-4.21875 3.70604,3e-5 6.45994,1.40628 8.26172,4.21875 1.81638,2.81252 2.72458,7.08254 2.72461,12.81005"
           sodipodi:nodetypes="csssscsccccssscccc" />
        <path
           inkscape:connector-curvature="0"
           id="path5806"
           style="font-size:60px;fill:#483737;font-family:DejaVu Sans Mono;-inkscape-font-specification:DejaVu Sans Mono"
           d="m 352.70624,143.04261 33.36914,0 0,5.77179 -13.68164,0 0,44.91811 -5.94727,0 0,-44.91811 -13.74023,0 0,-5.77179" />
        <path
           inkscape:connector-curvature="0"
           id="path5808"
           style="font-size:45px;font-weight:normal;text-align:start;line-height:125%;writing-mode:lr-tb;text-anchor:start;fill:#483737;font-family:DejaVu Sans Mono;-inkscape-font-specification:DejaVu Sans Mono"
           d="m 384.19012,164.5748 0,12.32666 5.14161,0 c 2.05076,2e-5 3.64744,-0.54198 4.79004,-1.62598 1.1572,-1.08396 1.73581,-2.60007 1.73583,-4.54834 -2e-5,-1.94821 -0.5713,-3.457 -1.71386,-4.52636 -1.1426,-1.08396 -2.7466,-1.62595 -4.81201,-1.62598 l -5.14161,0 m -4.43847,-3.64746 9.58008,0 c 3.66209,3e-5 6.43796,0.83499 8.32763,2.50488 1.88963,1.6553 2.83445,4.08694 2.83448,7.29492 -3e-5,3.23733 -0.94485,5.68361 -2.83448,7.33887 -1.87502,1.65529 -4.65089,2.48292 -8.32763,2.48291 l -5.14161,0 0,13.18359 -4.43847,0 0,-32.80517" />
      </g>
    </g>
  </g>
</svg>
